# xmcd CD database file
#
# Track frame offsets:
#	182
#	19280
#	41085
#	52302
#	73305
#	95607
#	124657
#	142260
#	161107
#
# Disc length: 2543 seconds
#
# Revision: 2
# Processed by: cddbd v1.4PL0 Copyright (c) Steve Scherf et al.
# Submitted via: CDex 1.40Release
#
DISCID=9109ed09
DTITLE=Groundhogs - Scratching the Surface
DYEAR=1968
DGENRE=Rock
TTITLE0=Rocking Chair
TTITLE1=Early In The Morning
TTITLE2=Waking Blues
TTITLE3=Married Men
TTITLE4=No More Doggin'
TTITLE5=Man Trouble
TTITLE6=Come Back Baby
TTITLE7=You Don't Love Me
TTITLE8=Still A Fool
EXTD=YEAR: 1968 ID3G: 17
EXTT0=
EXTT1=
EXTT2=
EXTT3=
EXTT4=
EXTT5=
EXTT6=
EXTT7=
EXTT8=
PLAYORDER=
